# xmcd
#
# Track frame offsets: 
#        150
#        14817
#        31315
#        41990
#        56503
#        70144
#        83985
#        96985
#        113308
#        129638
#        150753
#        165262
#        179589
#        196727
#        210580
#        229851
#
# Disc length: 3168 seconds
#
# Revision: 0
# Processed by: cddbd v1.5.2PL0 Copyright (c) Steve Scherf et al.
# Submitted via: ExactAudioCopyFreeDBPlugin 1.0
#
DISCID=cd0c5e10
DTITLE=Charlie McCoy-Robert Křesťan-Druhá tráva - Live in Brno
DYEAR=2003
DGENRE=Bluegrass
TTITLE0=Scotland
TTITLE1=Texas When I Die
TTITLE2=Midnight Flyer
TTITLE3=I'm So Lonesome I Could Cry
TTITLE4=Take the New River
TTITLE5=Choo Choo Boogie
TTITLE6=Cripple Creek
TTITLE7=Ruby (Are You Mad)
TTITLE8=John Henry
TTITLE9=Wayfaring Stranger
TTITLE10=Kdo obchází můj dům
TTITLE11=In the Pines
TTITLE12=Rollin' My Sweet Baby's Arms
TTITLE13=Chatanooga Choo Choo
TTITLE14=Orange Blossom Special
TTITLE15=Amazing Grace
EXTD=
EXTT0=
EXTT1=
EXTT2=
EXTT3=
EXTT4=
EXTT5=
EXTT6=
EXTT7=
EXTT8=
EXTT9=
EXTT10=
EXTT11=
EXTT12=
EXTT13=
EXTT14=
EXTT15=
PLAYORDER=
